<svg width="676" height="346" viewBox="0 0 676 346" fill="none" xmlns="http://www.w3.org/2000/svg">
<path opacity="0.5" d="M24.7422 282.623C27.4997 289.511 30.4621 305.466 38.898 306.971C50.2887 309.004 49.5003 296.611 49.053 288.658C48.1737 273.02 36.8195 250.903 40.77 236.298C135.093 311.38 249.172 350.125 369.652 345.317C489.485 340.534 620.933 296.277 695.907 197.132C732.603 148.606 755.872 90.3233 748.601 28.2576C747.977 22.9319 746.11 -3.53605 736.414 1.45622C731.36 4.05854 734.087 38.0191 733.631 44.1557C731.265 76.0571 723.498 105.724 709.444 134.347C661.558 231.877 555.743 290.039 453.265 310.309C385.38 323.736 312.966 322.184 245.137 306.86C210.126 298.952 175.124 287.511 142.979 271.248C115.866 257.531 70.7428 236.018 53.6229 209.654C80.1775 203.411 113.791 222.985 141.224 220.685C155.757 219.467 168.039 207.172 153.149 196.046C141.077 187.026 114.529 188.893 100.046 187.26C83.8856 185.437 67.7584 184.15 51.5034 183.85C39.5795 183.631 14.0819 178.179 4.98012 186.9C-11.1141 202.32 18.2429 264.736 24.7422 282.623C22.0307 275.16 27.6251 289.824 24.7422 282.623Z" fill="#222221"/>
</svg>
