<svg width="766" height="523" viewBox="0 0 766 523" fill="none" xmlns="http://www.w3.org/2000/svg">
<path id="arrow" d="M83.9371 496.953C100.224 503.109 117.806 505.036 135.039 502.552L141.475 501.393C143.599 500.878 145.723 500.235 147.911 499.591C152.13 498.417 156.242 496.888 160.204 495.022C167.849 491.511 175.098 487.196 181.829 482.15C208.088 462.327 225.014 437.098 250.243 423.775C261.813 416.67 275.316 413.362 288.859 414.314C301.843 416.334 313.563 423.242 321.619 433.622C330.483 444.92 338.364 456.957 345.174 469.599C352.478 483.541 361.901 496.264 373.107 507.314C379.802 513.52 387.902 518.009 396.712 520.396C405.523 522.784 414.782 522.999 423.694 521.023C432.096 519.079 440.062 515.587 447.185 510.726C453.611 506.402 459.603 501.466 465.077 495.987C475.89 485.625 484.385 474.813 494.425 465.931C504.139 456.927 514.952 449.185 526.605 442.89C537.602 436.763 549.736 432.952 562.261 431.691C574.22 430.75 586.226 432.784 597.208 437.613C619.219 447.009 637.497 462.262 656.806 474.105C666.35 480.251 676.704 485.038 687.57 488.328C698.19 491.529 709.495 491.685 720.2 488.779C729.695 486.324 738.347 481.342 745.236 474.362C750.801 468.43 755.172 461.481 758.108 453.896C762.501 442.29 765.021 430.059 765.574 417.661C765.981 409.981 765.852 402.282 765.188 394.62C764.673 389.407 764.094 386.639 763.707 386.704C763.321 386.768 763.193 397.709 760.811 417.275C759.396 429.056 756.274 440.568 751.543 451.45C748.512 458.107 744.255 464.133 738.993 469.213C732.987 474.868 725.557 478.783 717.497 480.541C708.524 482.675 699.131 482.228 690.401 479.254C680.661 475.973 671.431 471.336 662.984 465.48C653.974 459.559 644.899 452.608 635.116 445.851C624.924 438.356 614.016 431.889 602.55 426.543C599.396 425.32 596.114 423.968 592.96 422.81C589.807 421.651 586.203 420.943 582.727 420.107C575.542 418.729 568.212 418.253 560.909 418.691C546.218 419.797 531.912 423.916 518.882 430.79C505.986 437.498 493.985 445.801 483.162 455.505C477.756 460.203 472.543 465.416 467.651 470.501C462.76 475.585 457.933 480.605 452.913 485.303C443.861 494.847 432.38 501.744 419.703 505.255C413.703 506.483 407.492 506.217 401.618 504.483C395.702 502.719 390.295 499.563 385.85 495.279C376.216 485.275 368.164 473.859 361.972 461.426C354.815 447.851 346.48 434.929 337.065 422.81C331.616 416.043 325.093 410.216 317.757 405.561C309.937 400.548 301.139 397.258 291.949 395.907C282.655 394.696 273.215 395.286 264.145 397.645C255.636 399.81 247.439 403.054 239.753 407.299C225.543 415.34 212.542 425.351 201.137 437.033C190.841 447.575 179.877 457.442 168.313 466.575C162.821 470.684 156.91 474.2 150.679 477.065C147.673 478.456 144.55 479.576 141.346 480.412C139.737 480.863 138.193 481.377 136.584 481.764L131.692 482.536C118.44 484.327 104.95 482.71 92.497 477.838C68.0671 468.792 47.9082 450.93 35.989 427.766C25.7997 405.755 21.6036 381.444 23.8249 357.291C25.7409 334.545 30.2319 312.09 37.2118 290.357C48.5435 253.652 63.2145 218.062 81.041 184.034C94.051 159.165 108.603 135.133 124.613 112.08C142.614 86.6808 161.949 62.2541 182.537 38.9024C188.513 33.0234 193.627 26.3278 197.726 19.0152C202.974 22.2178 206.762 27.3455 208.281 33.3031C210.919 40.7688 213.365 48.6208 215.489 55.7647C219.801 70.3101 223.019 83.5682 225.529 94.8312C230.549 117.293 233.124 131.516 235.891 131.452C238.659 131.388 240.718 116.778 239.109 93.1579C238.002 79.2854 235.851 65.5163 232.673 51.9675C230.935 44.1799 228.876 36.4567 226.237 27.8968C224.746 23.0479 222.579 18.4331 219.801 14.1881C216.126 8.78962 210.896 4.63688 204.805 2.28156C198.835 0.22323 192.476 -0.45883 186.205 0.286391C181.272 0.828996 176.373 1.64549 171.531 2.73208C162.456 4.66288 153.768 6.85112 145.787 9.16808C131.424 13.2871 117.396 18.4939 103.824 24.7432C80.7836 35.427 68.4908 44.9522 69.7136 46.9474C70.9365 48.9426 85.6105 43.7294 109.102 36.328C120.88 32.6595 134.846 28.6048 150.679 24.9363C158.595 23.0698 166.897 21.3321 175.586 19.7875C177.71 19.337 179.769 19.0152 182.022 18.6934C179.061 21.0747 175.586 24.2927 170.566 28.5404C147.239 50.6385 126.017 74.8562 107.171 100.881C66.4399 156.425 35.3088 218.405 15.072 284.243C7.6297 307.476 2.89997 331.491 0.977121 355.811C-1.43866 383.453 3.53681 411.24 15.3938 436.325C30.0155 464.547 54.7812 486.185 84.7095 496.888" fill="#072333"/>
</svg>
