<svg width="901" height="461" viewBox="0 0 901 461" fill="none" xmlns="http://www.w3.org/2000/svg">
<path d="M5 456C8.67419 455.592 13.7186 449.774 15.9444 447.389C21.9958 440.905 27.3806 433.559 32 426C45.1032 404.558 55.4276 382.648 64.4444 359.167C83.0482 310.719 100.452 261.134 113 210.778C124.286 165.487 137.376 120.177 135.944 72.9444C135.515 58.7844 133.891 42.9639 125.556 31.0556C122.903 27.2663 121.977 26.2863 117.667 29C115.301 30.4897 113.746 32.6165 113.222 35.4444C109.786 53.9989 108 72.4653 108 91.4444C108 105.892 107.281 120.236 106.778 134.667C106.039 155.847 106.608 177.057 105.778 198.222C105.138 214.531 105.59 230.874 104.889 247.167C104.385 258.889 102.1 270.443 102 282.222C101.857 299.119 101 315.956 101 332.889C101 346.99 100 360.926 100 375.056C100 379.848 99.2518 385.2 100.778 389.778C102.119 393.802 104 398.238 104 402.556C104 406.072 105.12 414.725 106 406.222C106.475 401.633 109.281 396.216 110.444 391.667C112.293 384.442 111.395 377.408 112.556 370.111C117.956 336.168 126.235 304.599 139.778 273C146.239 257.924 157.888 250 170.111 240C176.771 234.551 190.537 227.086 199.556 229.222C204.239 230.331 206.972 234.684 208 239.056C209.915 247.195 213.463 254.587 214.444 263C216.509 280.692 212.765 298.356 214.222 316C216.182 339.73 220.702 367 237.611 384.944C245.291 393.095 256.707 401.382 267.778 403.778C278.016 405.994 285.868 403.728 294.778 398.778C302.622 394.42 308.376 389.144 314.167 382.389C323.517 371.48 335.086 363.406 342.556 350.889C353.179 333.087 364.068 316.358 370 296.444C373.248 285.541 374.075 267.02 364.222 259C356.302 252.553 348.367 259.637 342.889 266.111C331.352 279.745 324.984 296.634 323.222 314.444C322.381 322.951 324 331.484 324 340C324 349.063 325.949 358.522 330.556 366.444C333.346 371.244 336.956 377.691 342.444 379.778C349.474 382.451 357.514 384 365 384C386.229 384 408.109 380.715 426.556 369.333C439.789 361.168 451.655 351.439 462 339.944C469.608 331.492 478.38 319.392 483.222 309.222C488.646 297.833 491.88 287.068 495.5 275C500.046 259.848 498.01 243.145 500 227.556C505.248 186.449 526.134 149.114 530 107.556C531.148 95.2176 531.215 83.2639 531 71C530.97 69.2814 530.5 54.8748 530 55.5C527.668 58.4148 527.263 62.8811 526.222 66.4444C523.125 77.0453 522.644 87.2915 521.389 98.1667C518.118 126.516 517.29 156.449 519.444 185C522.111 220.327 519.513 256.738 528.056 291.444C531.677 306.158 535.761 324.145 546.556 335.556C557.945 347.596 572.291 333.333 580.444 323.944C587.733 315.552 590.612 305.753 594.444 295.556C600.385 279.751 608.121 263.993 612 247.556C613.741 240.179 616.309 233.513 619 226.444C622.97 216.018 624.757 205.456 627.111 194.611C629.244 184.786 632.988 175.46 634.778 165.556C637.146 152.454 638.123 139.154 639 125.889C641.335 90.5788 644.374 54.4854 641.222 19.1111C640.798 14.3468 639.981 7.08416 634.556 5.11111C630.044 3.47059 628.132 19.3783 627.778 21.2222C626.546 27.6344 624.637 33.856 623.222 40.2222C620.863 50.8389 620.691 61.8343 619.444 72.6111C616.025 102.183 616.575 132.151 617.111 161.889C617.803 200.267 617 238.506 617 276.889C617 295.352 617 313.815 617 332.278C617 346.632 616.192 361.425 618.444 375.667C619.709 383.663 621.988 394.94 627.444 401.389C630.809 405.366 640.54 402.523 644.444 400.889C651.695 397.854 656.713 391.672 663 387.222C671.606 381.131 679.866 375.015 688.222 368.556C699.389 359.923 709.977 352.035 718.111 340.389C728.544 325.451 741.244 313.254 750 297.056C757.234 283.672 764.284 271.415 768.556 256.667C772.524 242.965 774 230.222 774 216C774 208.907 774 201.815 774 194.722C774 194.233 773.024 196.104 772.778 196.444C770.699 199.323 768.977 202.361 767.222 205.444C758.928 220.021 753.929 234.799 747.444 250.222C740.269 267.289 735.634 284.674 737.667 303.333C741.76 340.918 774.421 362.421 811 357.889C830.073 355.526 852.351 351.627 864.056 334.833C873.872 320.748 886.086 306.42 891.222 289.778C892.787 284.709 893.076 279.625 893.611 274.389C894.556 265.152 896.341 255.764 895.778 246.444C895.129 235.707 889.164 223.548 884.778 213.778C877.182 196.86 862.974 185.444 846 178.5C840.601 176.291 833.938 176.665 828.222 177.222C817.921 178.227 804.915 178.914 796 184.444C779.725 194.541 772.193 208.244 766.056 225.889C764.084 231.556 760.413 237.154 759.222 243C758.381 247.129 758.075 250.26 754 247" stroke="url(#paint0_linear_2_4)" stroke-width="10" stroke-linecap="round"/>
<defs>
<linearGradient id="paint0_linear_2_4" x1="738" y1="415" x2="91" y2="44" gradientUnits="userSpaceOnUse">
<stop offset="0.0122085" stop-color="#83733C"/>
<stop offset="0.392784" stop-color="#436394"/>
<stop offset="0.971369" stop-color="#2B374E"/>
</linearGradient>
</defs>
</svg>
