<svg width="416" height="183" viewBox="0 0 416 183" fill="none" xmlns="http://www.w3.org/2000/svg">
<g clip-path="url(#clip0_0_251)">
<path d="M20.0713 17H22.3301V11.999L26.7773 4.31738H24.2988L21.2754 9.75781H21.126L18.1025 4.31738H15.624L20.0713 11.999V17ZM32.2598 17.1934C35.1338 17.1934 36.8828 15.3125 36.8828 12.2012V12.1836C36.8828 9.08984 35.125 7.20898 32.2598 7.20898C29.4033 7.20898 27.6367 9.09863 27.6367 12.1836V12.2012C27.6367 15.3125 29.377 17.1934 32.2598 17.1934ZM32.2598 15.418C30.7393 15.418 29.8691 14.2314 29.8691 12.21V12.1924C29.8691 10.1709 30.7393 8.97559 32.2598 8.97559C33.7715 8.97559 34.6416 10.1709 34.6416 12.1924V12.21C34.6416 14.2314 33.7803 15.418 32.2598 15.418ZM43.2617 17.1934C44.6504 17.1934 45.626 16.5693 46.0742 15.541H46.2236V17H48.4121V7.39355H46.2236V12.9922C46.2236 14.4336 45.4678 15.3477 44.0527 15.3477C42.7344 15.3477 42.1807 14.5918 42.1807 13.1064V7.39355H39.9922V13.6074C39.9922 15.8926 41.0996 17.1934 43.2617 17.1934ZM52.084 17H54.2725V11.4189C54.2725 10.0479 55.2305 9.17773 56.6895 9.17773C57.0674 9.17773 57.4277 9.23047 57.7793 9.30078V7.34082C57.5684 7.2793 57.2256 7.23535 56.8916 7.23535C55.626 7.23535 54.7471 7.8418 54.4219 8.87012H54.2725V7.39355H52.084V17ZM65.6592 17H68.0322L69.0869 13.7217H73.7803L74.8438 17H77.2168L72.7168 4.31738H70.1592L65.6592 17ZM71.3633 6.67285H71.5127L73.2178 11.9727H69.6582L71.3633 6.67285ZM83.7627 17.1934C86.1973 17.1934 87.6123 15.8838 87.9287 13.915L87.9463 13.8447L85.8809 13.8535L85.8633 13.8887C85.5908 14.8994 84.8965 15.418 83.7627 15.418C82.2773 15.418 81.3896 14.2227 81.3896 12.1836V12.166C81.3896 10.1533 82.2686 8.97559 83.7627 8.97559C84.958 8.97559 85.6699 9.64355 85.8721 10.5752L85.8809 10.6016H87.9463V10.5664C87.7002 8.58008 86.2236 7.20898 83.7539 7.20898C80.8623 7.20898 79.166 9.06348 79.166 12.166V12.1836C79.166 15.3213 80.8711 17.1934 83.7627 17.1934ZM94.9316 17.0439C95.3535 17.0439 95.7578 17.0088 96.0742 16.9473V15.2598C95.8105 15.2861 95.6436 15.2949 95.3359 15.2949C94.4219 15.2949 94.0439 14.8906 94.0439 13.9326V9.08984H96.0742V7.39355H94.0439V5.03809H91.8203V7.39355H90.3262V9.08984H91.8203V14.4512C91.8203 16.3057 92.7256 17.0439 94.9316 17.0439ZM100.379 5.78516C101.091 5.78516 101.68 5.21387 101.68 4.49316C101.68 3.78125 101.091 3.20117 100.379 3.20117C99.6582 3.20117 99.0693 3.78125 99.0693 4.49316C99.0693 5.21387 99.6582 5.78516 100.379 5.78516ZM99.2803 17H101.469V7.39355H99.2803V17ZM107.742 17H110.142L113.543 7.39355H111.24L109.034 14.8643H108.885L106.661 7.39355H104.323L107.742 17ZM117.514 5.78516C118.226 5.78516 118.814 5.21387 118.814 4.49316C118.814 3.78125 118.226 3.20117 117.514 3.20117C116.793 3.20117 116.204 3.78125 116.204 4.49316C116.204 5.21387 116.793 5.78516 117.514 5.78516ZM116.415 17H118.604V7.39355H116.415V17ZM126.072 17.0439C126.494 17.0439 126.898 17.0088 127.215 16.9473V15.2598C126.951 15.2861 126.784 15.2949 126.477 15.2949C125.562 15.2949 125.185 14.8906 125.185 13.9326V9.08984H127.215V7.39355H125.185V5.03809H122.961V7.39355H121.467V9.08984H122.961V14.4512C122.961 16.3057 123.866 17.0439 126.072 17.0439ZM131.423 20.375C133.55 20.375 134.648 19.6104 135.475 17.2021L138.92 7.39355H136.617L134.385 14.8994H134.218L131.977 7.39355H129.586L133.022 17.0088L132.908 17.4482C132.671 18.3184 132.135 18.6875 131.238 18.6875C131.01 18.6875 130.764 18.6787 130.588 18.6611V20.3398C130.852 20.3662 131.159 20.375 131.423 20.375Z" fill="#2E2A2A"/>
<path d="M338.918 15H340.16L341.971 8.67773H342.053L343.869 15H345.105L347.391 6.54492H346.025L344.479 13.1191H344.396L342.621 6.54492H341.402L339.639 13.1191H339.557L338.004 6.54492H336.639L338.918 15ZM351.871 15.123C353.5 15.123 354.379 14.1855 354.59 13.3477L354.602 13.2949L353.377 13.3008L353.354 13.3477C353.201 13.6758 352.715 14.0801 351.9 14.0801C350.852 14.0801 350.184 13.3711 350.16 12.1523H354.672V11.707C354.672 9.79688 353.582 8.51367 351.807 8.51367C350.031 8.51367 348.883 9.84375 348.883 11.8301V11.8359C348.883 13.8516 350.008 15.123 351.871 15.123ZM351.812 9.55664C352.674 9.55664 353.312 10.1074 353.412 11.2441H350.178C350.289 10.1484 350.945 9.55664 351.812 9.55664ZM359.855 15.123C361.484 15.123 362.363 14.1855 362.574 13.3477L362.586 13.2949L361.361 13.3008L361.338 13.3477C361.186 13.6758 360.699 14.0801 359.885 14.0801C358.836 14.0801 358.168 13.3711 358.145 12.1523H362.656V11.707C362.656 9.79688 361.566 8.51367 359.791 8.51367C358.016 8.51367 356.867 9.84375 356.867 11.8301V11.8359C356.867 13.8516 357.992 15.123 359.855 15.123ZM359.797 9.55664C360.658 9.55664 361.297 10.1074 361.396 11.2441H358.162C358.273 10.1484 358.93 9.55664 359.797 9.55664ZM365.227 15H366.498V12.6855L367.043 12.1406L369.234 15H370.781L367.951 11.3203L370.605 8.63672H369.117L366.592 11.3203H366.498V6.14062H365.227V15ZM373 15H374.271V6.14062H373V15ZM377.785 17.2383C379.074 17.2383 379.719 16.7637 380.258 15.2461L382.625 8.63672H381.289L379.701 13.7227H379.59L377.996 8.63672H376.625L378.934 15.0059L378.84 15.334C378.652 15.9785 378.295 16.2305 377.703 16.2305C377.557 16.2305 377.398 16.2246 377.275 16.207V17.209C377.439 17.2266 377.627 17.2383 377.785 17.2383Z" fill="#77838F"/>
<path d="M389.251 10.2197C389.56 9.94931 390.046 9.92851 390.382 10.1573L390.463 10.2197L395 14.1887L399.537 10.2197C399.846 9.94931 400.332 9.92851 400.668 10.1573L400.749 10.2197C401.058 10.49 401.082 10.9155 400.82 11.2097L400.749 11.2803L395.606 15.7803C395.297 16.0507 394.811 16.0715 394.475 15.8427L394.394 15.7803L389.251 11.2803C388.916 10.9874 388.916 10.5126 389.251 10.2197Z" fill="#E6EEF5"/>
</g>
<path fill-rule="evenodd" clip-rule="evenodd" d="M1 152.455L1 96.7122C1 96.7122 24.0343 122.139 28 121.376C49.4004 117.262 74.9141 91.9106 86.875 91.9106C98.8359 91.9106 137.5 113.007 154.5 113.007C171.5 113.007 204 53.4551 217 53.4551C230 53.4551 254.68 96.7122 266.697 96.7122C278.715 96.7122 316 79.6332 328 79.6332C340 79.6332 371 91.9106 383 91.9106C387.312 91.9106 415 83.7575 415 83.7575V152.455H1Z" fill="url(#paint0_linear_0_251)"/>
<path d="M1 95.7625C1 95.7625 19.502 120.455 30 120.455C40.498 120.455 74.9141 90.9553 86.875 90.9553C98.8359 90.9553 137.5 112.076 154.5 112.076C171.5 112.076 204 52.4551 217 52.4551C230 52.4551 254.68 95.7625 266.697 95.7625C278.715 95.7625 316 78.6636 328 78.6636C340 78.6636 371 90.9553 383 90.9553C395 90.9553 415 82.7927 415 82.7927" stroke="#3354F4" stroke-width="2"/>
<rect opacity="0.296012" x="209" y="45" width="16" height="108" rx="8" fill="#3378FF"/>
<circle cx="217" cy="53" r="6" fill="#3354F4" stroke="white" stroke-width="4"/>
<g clip-path="url(#clip1_0_251)">
<path d="M16.043 180H17.4082V173.988H17.5078L19.8516 180H20.8828L23.2266 173.988H23.332V180H24.6914V171.545H22.957L20.4199 178.049H20.3203L17.7773 171.545H16.043V180ZM30.3906 180.129C32.3066 180.129 33.4727 178.875 33.4727 176.801V176.789C33.4727 174.727 32.3008 173.473 30.3906 173.473C28.4863 173.473 27.3086 174.732 27.3086 176.789V176.801C27.3086 178.875 28.4688 180.129 30.3906 180.129ZM30.3906 178.945C29.377 178.945 28.7969 178.154 28.7969 176.807V176.795C28.7969 175.447 29.377 174.65 30.3906 174.65C31.3984 174.65 31.9785 175.447 31.9785 176.795V176.807C31.9785 178.154 31.4043 178.945 30.3906 178.945ZM35.9375 180H37.3965V176.268C37.3965 175.307 37.9355 174.697 38.8027 174.697C39.6875 174.697 40.0918 175.201 40.0918 176.197V180H41.5508V175.857C41.5508 174.334 40.7715 173.473 39.3418 173.473C38.416 173.473 37.8008 173.889 37.4961 174.574H37.3965V173.596H35.9375V180Z" fill="#77838F"/>
<path d="M82.8945 180H84.4062V172.816H87.0137V171.545H80.293V172.816H82.8945V180ZM90.8496 180.129C91.7754 180.129 92.4258 179.713 92.7246 179.027H92.8242V180H94.2832V173.596H92.8242V177.328C92.8242 178.289 92.3203 178.898 91.377 178.898C90.498 178.898 90.1289 178.395 90.1289 177.404V173.596H88.6699V177.738C88.6699 179.262 89.4082 180.129 90.8496 180.129ZM99.8066 180.129C101.547 180.129 102.402 179.127 102.607 178.301L102.625 178.248H101.236L101.219 178.289C101.078 178.582 100.627 178.98 99.8359 178.98C98.8457 178.98 98.2246 178.312 98.207 177.164H102.684V176.684C102.684 174.75 101.559 173.473 99.7363 173.473C97.9141 173.473 96.748 174.791 96.748 176.807V176.812C96.748 178.852 97.9023 180.129 99.8066 180.129ZM99.7539 174.615C100.568 174.615 101.16 175.137 101.26 176.186H98.2188C98.3301 175.166 98.9395 174.615 99.7539 174.615Z" fill="#77838F"/>
<path d="M142.787 180H144.211L145.922 173.947H146.01L147.732 180H149.15L151.418 171.545H149.854L148.406 177.891H148.324L146.637 171.545H145.295L143.631 177.891H143.543L142.096 171.545H140.52L142.787 180ZM155.898 180.129C157.639 180.129 158.494 179.127 158.699 178.301L158.717 178.248H157.328L157.311 178.289C157.17 178.582 156.719 178.98 155.928 178.98C154.938 178.98 154.316 178.312 154.299 177.164H158.775V176.684C158.775 174.75 157.65 173.473 155.828 173.473C154.006 173.473 152.84 174.791 152.84 176.807V176.812C152.84 178.852 153.994 180.129 155.898 180.129ZM155.846 174.615C156.66 174.615 157.252 175.137 157.352 176.186H154.311C154.422 175.166 155.031 174.615 155.846 174.615ZM163.543 180.105C164.445 180.105 165.137 179.695 165.488 178.998H165.588V180H167.053V171.117H165.588V174.615H165.488C165.154 173.924 164.422 173.49 163.543 173.49C161.92 173.49 160.918 174.756 160.918 176.795V176.807C160.918 178.834 161.938 180.105 163.543 180.105ZM164 178.875C163.004 178.875 162.4 178.096 162.4 176.807V176.795C162.4 175.506 163.01 174.721 164 174.721C164.99 174.721 165.611 175.512 165.611 176.795V176.807C165.611 178.09 164.996 178.875 164 178.875Z" fill="#77838F"/>
<path d="M208.379 180H209.891V172.816H212.498V171.545H205.777V172.816H208.379V180ZM214.986 180H216.445V176.268C216.445 175.307 216.984 174.697 217.852 174.697C218.736 174.697 219.141 175.201 219.141 176.197V180H220.6V175.857C220.6 174.334 219.82 173.473 218.391 173.473C217.465 173.473 216.85 173.889 216.545 174.574H216.445V171.117H214.986V180ZM225.443 180.129C226.369 180.129 227.02 179.713 227.318 179.027H227.418V180H228.877V173.596H227.418V177.328C227.418 178.289 226.914 178.898 225.971 178.898C225.092 178.898 224.723 178.395 224.723 177.404V173.596H223.264V177.738C223.264 179.262 224.002 180.129 225.443 180.129Z" fill="#3354F4"/>
<path d="M264.879 180H266.391V176.549H269.936V175.318H266.391V172.816H270.27V171.545H264.879V180ZM272.793 180H274.252V176.279C274.252 175.365 274.891 174.785 275.863 174.785C276.115 174.785 276.355 174.82 276.59 174.867V173.561C276.449 173.52 276.221 173.49 275.998 173.49C275.154 173.49 274.568 173.895 274.352 174.58H274.252V173.596H272.793V180ZM279.535 172.523C280.01 172.523 280.402 172.143 280.402 171.662C280.402 171.188 280.01 170.801 279.535 170.801C279.055 170.801 278.662 171.188 278.662 171.662C278.662 172.143 279.055 172.523 279.535 172.523ZM278.803 180H280.262V173.596H278.803V180Z" fill="#77838F"/>
<path d="M320.717 180.211C322.744 180.211 324.016 179.18 324.016 177.533V177.527C324.016 176.25 323.271 175.535 321.49 175.16L320.582 174.967C319.527 174.744 319.1 174.369 319.1 173.771V173.766C319.1 173.045 319.768 172.605 320.705 172.605C321.672 172.6 322.299 173.068 322.404 173.725L322.416 173.795H323.863L323.857 173.719C323.752 172.359 322.586 171.334 320.711 171.334C318.883 171.334 317.582 172.354 317.582 173.865V173.871C317.582 175.131 318.332 175.939 320.061 176.303L320.969 176.49C322.059 176.725 322.498 177.094 322.498 177.703V177.709C322.498 178.436 321.783 178.939 320.764 178.939C319.691 178.939 318.936 178.471 318.865 177.762L318.859 177.703H317.395L317.4 177.785C317.506 179.244 318.754 180.211 320.717 180.211ZM328.25 180.105C329.094 180.105 329.773 179.742 330.125 179.121H330.225V180H331.666V175.623C331.666 174.27 330.74 173.473 329.094 173.473C327.57 173.473 326.539 174.188 326.398 175.266L326.393 175.318H327.77L327.775 175.295C327.922 174.873 328.355 174.633 329.023 174.633C329.809 174.633 330.225 174.984 330.225 175.623V176.174L328.578 176.273C327.02 176.367 326.146 177.035 326.146 178.178V178.189C326.146 179.355 327.031 180.105 328.25 180.105ZM327.588 178.119V178.107C327.588 177.58 327.969 177.281 328.783 177.229L330.225 177.135V177.65C330.225 178.412 329.574 178.986 328.695 178.986C328.051 178.986 327.588 178.664 327.588 178.119ZM336.938 180.029C337.219 180.029 337.488 180.006 337.699 179.965V178.84C337.523 178.857 337.412 178.863 337.207 178.863C336.598 178.863 336.346 178.594 336.346 177.955V174.727H337.699V173.596H336.346V172.025H334.863V173.596H333.867V174.727H334.863V178.301C334.863 179.537 335.467 180.029 336.938 180.029Z" fill="#77838F"/>
<path d="M380.373 180.211C382.4 180.211 383.672 179.18 383.672 177.533V177.527C383.672 176.25 382.928 175.535 381.146 175.16L380.238 174.967C379.184 174.744 378.756 174.369 378.756 173.771V173.766C378.756 173.045 379.424 172.605 380.361 172.605C381.328 172.6 381.955 173.068 382.061 173.725L382.072 173.795H383.52L383.514 173.719C383.408 172.359 382.242 171.334 380.367 171.334C378.539 171.334 377.238 172.354 377.238 173.865V173.871C377.238 175.131 377.988 175.939 379.717 176.303L380.625 176.49C381.715 176.725 382.154 177.094 382.154 177.703V177.709C382.154 178.436 381.439 178.939 380.42 178.939C379.348 178.939 378.592 178.471 378.521 177.762L378.516 177.703H377.051L377.057 177.785C377.162 179.244 378.41 180.211 380.373 180.211ZM388.34 180.129C389.266 180.129 389.916 179.713 390.215 179.027H390.314V180H391.773V173.596H390.314V177.328C390.314 178.289 389.811 178.898 388.867 178.898C387.988 178.898 387.619 178.395 387.619 177.404V173.596H386.16V177.738C386.16 179.262 386.898 180.129 388.34 180.129ZM394.555 180H396.014V176.268C396.014 175.307 396.553 174.697 397.42 174.697C398.305 174.697 398.709 175.201 398.709 176.197V180H400.168V175.857C400.168 174.334 399.389 173.473 397.959 173.473C397.033 173.473 396.418 173.889 396.113 174.574H396.014V173.596H394.555V180Z" fill="#77838F"/>
</g>
<defs>
<linearGradient id="paint0_linear_0_251" x1="5.16737" y1="53.4551" x2="5.16737" y2="150.462" gradientUnits="userSpaceOnUse">
<stop stop-color="#3354F4"/>
<stop offset="1" stop-color="white" stop-opacity="0.01"/>
</linearGradient>
<clipPath id="clip0_0_251">
<rect width="386" height="21" fill="white" transform="translate(15)"/>
</clipPath>
<clipPath id="clip1_0_251">
<rect width="386" height="14" fill="white" transform="translate(15 169)"/>
</clipPath>
</defs>
</svg>
