<svg width="331.71875px" height="144.8px" xmlns="http://www.w3.org/2000/svg" viewBox="84.140625 2.5999999999999943 331.71875 144.8" style="background: rgba(0, 0, 0, 0);" preserveAspectRatio="xMidYMid"><defs><linearGradient id="editing-gradient-gradient" x1="0" x2="1" y1="0.5" y2="0.5" gradientUnits="objectBoundingBox"><stop offset="0" stop-color="#f0f"></stop><stop offset="1" stop-color="#0ff"></stop></linearGradient></defs><g><g transform="translate(135.49499237537384, 97.90305137634277)"><path d="M18.88-15.63L13.06-0.81L0.88-28.75L2.50-30.44L12.88-7.19L17.63-22.50L29.69-6L29.69-6Q30.25-9.06 30.41-12.16L30.41-12.16L30.41-12.16Q30.56-15.25 30.53-18.34L30.53-18.34L30.53-18.34Q30.50-21.44 30.47-24.63L30.47-24.63L30.47-24.63Q30.44-27.81 30.63-31L30.63-31L33.31-30L33.31-30Q33.31-25.31 33.31-22.06L33.31-22.06L33.31-22.06Q33.31-18.81 33.31-16.59L33.31-16.59L33.31-16.59Q33.31-14.38 33.28-13L33.28-13L33.28-13Q33.25-11.63 33.22-10.63L33.22-10.63L33.22-10.63Q33.19-9.63 33.06-8.78L33.06-8.78L33.06-8.78Q32.94-7.94 32.75-6.91L32.75-6.91L32.75-6.91Q32.56-5.88 32.31-4.38L32.31-4.38L32.31-4.38Q32.06-2.88 31.69-0.44L31.69-0.44L31.69-0.44Q29.75-1.94 27.94-4.19L27.94-4.19L27.94-4.19Q26.13-6.44 24.53-8.69L24.53-8.69L24.53-8.69Q22.94-10.94 21.50-12.84L21.50-12.84L21.50-12.84Q20.06-14.75 18.88-15.63L18.88-15.63ZM37.13-43.19L39.19-42.88L40.81-22.38L40.81-22.38Q41.25-22.75 41.94-23.50L41.94-23.50L41.94-23.50Q42.63-24.25 43.56-24.91L43.56-24.91L43.56-24.91Q44.50-25.56 45.63-26.03L45.63-26.03L45.63-26.03Q46.75-26.50 48.06-26.44L48.06-26.44L48.06-26.44Q50.63-26.19 52.16-24.38L52.16-24.38L52.16-24.38Q53.69-22.56 54.47-19.94L54.47-19.94L54.47-19.94Q55.25-17.31 55.50-14.22L55.50-14.22L55.50-14.22Q55.75-11.13 55.66-8.31L55.66-8.31L55.66-8.31Q55.56-5.50 55.34-3.31L55.34-3.31L55.34-3.31Q55.13-1.13 55-0.31L55-0.31L52.75-0.63L52.75-0.63Q52.75-1.19 52.78-2.41L52.78-2.41L52.78-2.41Q52.81-3.63 52.88-5.28L52.88-5.28L52.88-5.28Q52.94-6.94 52.94-8.75L52.94-8.75L52.94-8.75Q52.94-10.56 52.97-12.16L52.97-12.16L52.97-12.16Q53-13.75 52.97-15L52.97-15L52.97-15Q52.94-16.25 52.88-16.75L52.88-16.75L52.88-16.75Q52.94-18.50 52.19-20.13L52.19-20.13L52.19-20.13Q51.44-21.75 50.19-22.59L50.19-22.59L50.19-22.59Q48.94-23.44 47.19-23.16L47.19-23.16L47.19-23.16Q45.44-22.88 43.44-20.69L43.44-20.69L43.44-20.69Q41.69-18.06 40.88-15.53L40.88-15.53L40.88-15.53Q40.06-13 39.81-10.53L39.81-10.53L39.81-10.53Q39.56-8.06 39.63-5.47L39.63-5.47L39.63-5.47Q39.69-2.88 39.63 0L39.63 0L37.19-0.38L37.19-0.38Q37.38-1.06 37.47-2.91L37.47-2.91L37.47-2.91Q37.56-4.75 37.63-7.34L37.63-7.34L37.63-7.34Q37.69-9.94 37.72-13.13L37.72-13.13L37.72-13.13Q37.75-16.31 37.72-19.72L37.72-19.72L37.72-19.72Q37.69-23.13 37.63-26.56L37.63-26.56L37.63-26.56Q37.56-30 37.47-33.13L37.47-33.13L37.47-33.13Q37.38-36.25 37.28-38.88L37.28-38.88L37.28-38.88Q37.19-41.50 37.13-43.19L37.13-43.19ZM58.63-14.69L58.63-14.69L58.63-14.69Q58.63-16.56 59.44-18.84L59.44-18.84L59.44-18.84Q60.25-21.13 61.66-23.09L61.66-23.09L61.66-23.09Q63.06-25.06 64.84-26.41L64.84-26.41L64.84-26.41Q66.63-27.75 68.56-27.75L68.56-27.75L68.56-27.75Q69.63-27.75 70.66-27.31L70.66-27.31L70.66-27.31Q71.69-26.88 72.66-26.16L72.66-26.16L72.66-26.16Q73.63-25.44 74.41-24.53L74.41-24.53L74.41-24.53Q75.19-23.63 75.63-22.63L75.63-22.63L75.63-22.63Q76.06-21.63 76.09-20.69L76.09-20.69L76.09-20.69Q76.13-19.75 75.56-19.06L75.56-19.06L62.38-16.63L62.38-16.63Q62.13-16.56 61.94-16.03L61.94-16.03L61.94-16.03Q61.75-15.50 61.63-14.69L61.63-14.69L61.63-14.69Q61.50-13.88 61.41-12.91L61.41-12.91L61.41-12.91Q61.31-11.94 61.25-11.03L61.25-11.03L61.25-11.03Q61.19-10.13 61.19-9.41L61.19-9.41L61.19-9.41Q61.19-8.69 61.19-8.31L61.19-8.31L61.19-8.31Q61.19-6.56 62.03-5.47L62.03-5.47L62.03-5.47Q62.88-4.38 64.19-3.81L64.19-3.81L64.19-3.81Q65.50-3.25 67.16-3.06L67.16-3.06L67.16-3.06Q68.81-2.88 70.44-2.88L70.44-2.88L70.44-2.88Q72.06-2.88 73.50-3L73.50-3L73.50-3Q74.94-3.13 75.88-3.13L75.88-3.13L75.88-3.13Q75.88-2.88 75.69-2.56L75.69-2.56L75.69-2.56Q75.50-2.25 75.25-1.97L75.25-1.97L75.25-1.97Q75-1.69 74.75-1.47L74.75-1.47L74.75-1.47Q74.50-1.25 74.44-1.19L74.44-1.19L74.44-1.19Q73.94-1.06 72.91-0.84L72.91-0.84L72.91-0.84Q71.88-0.63 70.72-0.44L70.72-0.44L70.72-0.44Q69.56-0.25 68.56-0.13L68.56-0.13L68.56-0.13Q67.56 0 67.19 0L67.19 0L67.19 0Q65.25 0.38 63.81-0.06L63.81-0.06L63.81-0.06Q62.38-0.50 61.38-1.56L61.38-1.56L61.38-1.56Q60.38-2.63 59.75-4.16L59.75-4.16L59.75-4.16Q59.13-5.69 58.81-7.44L58.81-7.44L58.81-7.44Q58.50-9.19 58.47-11.06L58.47-11.06L58.47-11.06Q58.44-12.94 58.63-14.69ZM67.69-25.38L67.69-25.38L67.69-25.38Q67.13-25.38 66.22-24.78L66.22-24.78L66.22-24.78Q65.31-24.19 64.53-23.28L64.53-23.28L64.53-23.28Q63.75-22.38 63.22-21.34L63.22-21.34L63.22-21.34Q62.69-20.31 62.88-19.56L62.88-19.56L62.88-19.56Q64.50-19.38 66.25-19.63L66.25-19.63L66.25-19.63Q68-19.88 69.44-20.41L69.44-20.41L69.44-20.41Q70.88-20.94 71.81-21.66L71.81-21.66L71.81-21.66Q72.75-22.38 72.72-23.13L72.72-23.13L72.72-23.13Q72.69-23.88 71.53-24.47L71.53-24.47L71.53-24.47Q70.38-25.06 67.69-25.38ZM78.88-24.38L78.88-24.38L78.88-24.38Q79.63-24.69 80.19-24.50L80.19-24.50L80.19-24.50Q80.75-24.31 81.13-23.81L81.13-23.81L81.13-23.81Q81.50-23.31 81.69-22.66L81.69-22.66L81.69-22.66Q81.88-22 82-21.38L82-21.38L82-21.38Q82.81-22.75 84.34-23.59L84.34-23.59L84.34-23.59Q85.88-24.44 87.63-24.72L87.63-24.72L87.63-24.72Q89.38-25 91.13-24.84L91.13-24.84L91.13-24.84Q92.88-24.69 94.09-24.09L94.09-24.09L94.09-24.09Q95.31-23.50 95.81-22.47L95.81-22.47L95.81-22.47Q96.31-21.44 95.56-20.06L95.56-20.06L95.56-20.06Q93.94-21 92.16-21.56L92.16-21.56L92.16-21.56Q90.38-22.13 88.69-21.94L88.69-21.94L88.69-21.94Q87-21.75 85.56-20.66L85.56-20.66L85.56-20.66Q84.13-19.56 83.19-17.19L83.19-17.19L83.19-17.19Q82.25-14.81 82.03-10.91L82.03-10.91L82.03-10.91Q81.81-7 82.56-1.19L82.56-1.19L80.19-1.19L80.19-1.19Q80.19-1.19 80.09-2.22L80.09-2.22L80.09-2.22Q80-3.25 79.91-4.94L79.91-4.94L79.91-4.94Q79.81-6.63 79.66-8.69L79.66-8.69L79.66-8.69Q79.50-10.75 79.38-12.88L79.38-12.88L79.38-12.88Q79.25-15 79.16-16.97L79.16-16.97L79.16-16.97Q79.06-18.94 78.94-20.38L78.94-20.38L78.94-20.38Q78.94-20.56 78.91-21.13L78.91-21.13L78.91-21.13Q78.88-21.69 78.88-22.34L78.88-22.34L78.88-22.34Q78.88-23 78.88-23.56L78.88-23.56L78.88-23.56Q78.88-24.13 78.88-24.38ZM98.81-14.69L98.81-14.69L98.81-14.69Q98.81-16.56 99.63-18.84L99.63-18.84L99.63-18.84Q100.44-21.13 101.84-23.09L101.84-23.09L101.84-23.09Q103.25-25.06 105.03-26.41L105.03-26.41L105.03-26.41Q106.81-27.75 108.75-27.75L108.75-27.75L108.75-27.75Q109.81-27.75 110.84-27.31L110.84-27.31L110.84-27.31Q111.88-26.88 112.84-26.16L112.84-26.16L112.84-26.16Q113.81-25.44 114.59-24.53L114.59-24.53L114.59-24.53Q115.38-23.63 115.81-22.63L115.81-22.63L115.81-22.63Q116.25-21.63 116.28-20.69L116.28-20.69L116.28-20.69Q116.31-19.75 115.75-19.06L115.75-19.06L102.56-16.63L102.56-16.63Q102.31-16.56 102.13-16.03L102.13-16.03L102.13-16.03Q101.94-15.50 101.81-14.69L101.81-14.69L101.81-14.69Q101.69-13.88 101.59-12.91L101.59-12.91L101.59-12.91Q101.50-11.94 101.44-11.03L101.44-11.03L101.44-11.03Q101.38-10.13 101.38-9.41L101.38-9.41L101.38-9.41Q101.38-8.69 101.38-8.31L101.38-8.31L101.38-8.31Q101.38-6.56 102.22-5.47L102.22-5.47L102.22-5.47Q103.06-4.38 104.38-3.81L104.38-3.81L104.38-3.81Q105.69-3.25 107.34-3.06L107.34-3.06L107.34-3.06Q109-2.88 110.63-2.88L110.63-2.88L110.63-2.88Q112.25-2.88 113.69-3L113.69-3L113.69-3Q115.13-3.13 116.06-3.13L116.06-3.13L116.06-3.13Q116.06-2.88 115.88-2.56L115.88-2.56L115.88-2.56Q115.69-2.25 115.44-1.97L115.44-1.97L115.44-1.97Q115.19-1.69 114.94-1.47L114.94-1.47L114.94-1.47Q114.69-1.25 114.63-1.19L114.63-1.19L114.63-1.19Q114.13-1.06 113.09-0.84L113.09-0.84L113.09-0.84Q112.06-0.63 110.91-0.44L110.91-0.44L110.91-0.44Q109.75-0.25 108.75-0.13L108.75-0.13L108.75-0.13Q107.75 0 107.38 0L107.38 0L107.38 0Q105.44 0.38 104-0.06L104-0.06L104-0.06Q102.56-0.50 101.56-1.56L101.56-1.56L101.56-1.56Q100.56-2.63 99.94-4.16L99.94-4.16L99.94-4.16Q99.31-5.69 99-7.44L99-7.44L99-7.44Q98.69-9.19 98.66-11.06L98.66-11.06L98.66-11.06Q98.63-12.94 98.81-14.69ZM107.88-25.38L107.88-25.38L107.88-25.38Q107.31-25.38 106.41-24.78L106.41-24.78L106.41-24.78Q105.50-24.19 104.72-23.28L104.72-23.28L104.72-23.28Q103.94-22.38 103.41-21.34L103.41-21.34L103.41-21.34Q102.88-20.31 103.06-19.56L103.06-19.56L103.06-19.56Q104.69-19.38 106.44-19.63L106.44-19.63L106.44-19.63Q108.19-19.88 109.63-20.41L109.63-20.41L109.63-20.41Q111.06-20.94 112-21.66L112-21.66L112-21.66Q112.94-22.38 112.91-23.13L112.91-23.13L112.91-23.13Q112.88-23.88 111.72-24.47L111.72-24.47L111.72-24.47Q110.56-25.06 107.88-25.38ZM143.44-5.38L143.44-5.38L143.44-5.38Q143.44-8.94 145.41-10.56L145.41-10.56L145.41-10.56Q147.38-12.19 150.56-12.19L150.56-12.19L150.56-12.19Q151.81-12.19 152.91-12.13L152.91-12.13L152.91-12.13Q154-12.06 155-11.81L155-11.81L155-11.81Q156-11.56 156.97-11.06L156.97-11.06L156.97-11.06Q157.94-10.56 159-9.63L159-9.63L159-9.63Q159-9.81 159.03-10.41L159.03-10.41L159.03-10.41Q159.06-11 159.06-11.69L159.06-11.69L159.06-11.69Q159.06-12.38 159.06-12.97L159.06-12.97L159.06-12.97Q159.06-13.56 159.06-13.81L159.06-13.81L159.06-13.81Q159-14.94 159-16.72L159-16.72L159-16.72Q159-18.50 158.72-20.38L158.72-20.38L158.72-20.38Q158.44-22.25 157.59-23.94L157.59-23.94L157.59-23.94Q156.75-25.63 154.88-26.50L154.88-26.50L154.88-26.50Q153.56-26.50 152.44-26.06L152.44-26.06L152.44-26.06Q151.31-25.63 150.19-25.13L150.19-25.13L150.19-25.13Q149.06-24.63 147.94-24.22L147.94-24.22L147.94-24.22Q146.81-23.81 145.50-23.81L145.50-23.81L145.50-23.81Q145.50-25.38 146.47-26.41L146.47-26.41L146.47-26.41Q147.44-27.44 148.81-28L148.81-28L148.81-28Q150.19-28.56 151.69-28.75L151.69-28.75L151.69-28.75Q153.19-28.94 154.31-28.94L154.31-28.94L154.31-28.94Q155.44-28.75 156.41-28.50L156.41-28.50L156.41-28.50Q157.38-28.25 158.22-27.50L158.22-27.50L158.22-27.50Q159.06-26.75 159.78-25.22L159.78-25.22L159.78-25.22Q160.50-23.69 161.03-20.94L161.03-20.94L161.03-20.94Q161.56-18.19 161.97-13.97L161.97-13.97L161.97-13.97Q162.38-9.75 162.63-3.63L162.63-3.63L162.63-3.63Q162.75-2.81 162.09-2.22L162.09-2.22L162.09-2.22Q161.44-1.63 160.31-1.22L160.31-1.22L160.31-1.22Q159.19-0.81 157.78-0.53L157.78-0.53L157.78-0.53Q156.38-0.25 154.94-0.13L154.94-0.13L154.94-0.13Q153.50 0 152.19 0.06L152.19 0.06L152.19 0.06Q150.88 0.13 150 0.13L150 0.13L150 0.13Q148.88 0.13 147.72-0.25L147.72-0.25L147.72-0.25Q146.56-0.63 145.59-1.34L145.59-1.34L145.59-1.34Q144.63-2.06 144.03-3.09L144.03-3.09L144.03-3.09Q143.44-4.13 143.44-5.38ZM151.56-9.75L151.56-9.75L151.56-9.75Q148.44-8.88 147.19-7.66L147.19-7.66L147.19-7.66Q145.94-6.44 146.09-5.31L146.09-5.31L146.09-5.31Q146.25-4.19 147.56-3.28L147.56-3.28L147.56-3.28Q148.88-2.38 150.75-2.09L150.75-2.09L150.75-2.09Q152.63-1.81 154.81-2.41L154.81-2.41L154.81-2.41Q157-3 159-4.75L159-4.75L159-4.75Q158.25-6.56 157.50-7.53L157.50-7.53L157.50-7.53Q156.75-8.50 155.88-9L155.88-9L155.88-9Q155-9.50 153.94-9.63L153.94-9.63L153.94-9.63Q152.88-9.75 151.56-9.75ZM165.06-24.38L165.06-24.38L165.06-24.38Q165.81-24.38 166.69-24L166.69-24L166.69-24Q167.56-23.63 167.94-22.50L167.94-22.50L167.94-22.50Q168.44-24.63 169.47-25.94L169.47-25.94L169.47-25.94Q170.50-27.25 171.84-27.75L171.84-27.75L171.84-27.75Q173.19-28.25 174.66-28.09L174.66-28.09L174.66-28.09Q176.13-27.94 177.41-27.19L177.41-27.19L177.41-27.19Q178.69-26.44 179.66-25.25L179.66-25.25L179.66-25.25Q180.63-24.06 181-22.50L181-22.50L181-22.50Q181.69-24.44 182.84-26.09L182.84-26.09L182.84-26.09Q184-27.75 185.41-28.88L185.41-28.88L185.41-28.88Q186.81-30 188.34-30.44L188.34-30.44L188.34-30.44Q189.88-30.88 191.22-30.41L191.22-30.41L191.22-30.41Q192.56-29.94 193.59-28.41L193.59-28.41L193.59-28.41Q194.63-26.88 195.06-24L195.06-24L195.06-24Q195.19-23.19 195.38-21.59L195.38-21.59L195.38-21.59Q195.56-20 195.78-18L195.78-18L195.78-18Q196-16 196.28-13.78L196.28-13.78L196.28-13.78Q196.56-11.56 196.78-9.56L196.78-9.56L196.78-9.56Q197-7.56 197.19-5.97L197.19-5.97L197.19-5.97Q197.38-4.38 197.50-3.63L197.50-3.63L197.50-3.63Q197.50-3 197.44-2.25L197.44-2.25L197.44-2.25Q197.38-1.50 197.16-0.97L197.16-0.97L197.16-0.97Q196.94-0.44 196.47-0.28L196.47-0.28L196.47-0.28Q196-0.13 195.06-0.81L195.06-0.81L195.06-0.81Q195.06-1.56 194.88-3.25L194.88-3.25L194.88-3.25Q194.69-4.94 194.50-7.16L194.50-7.16L194.50-7.16Q194.31-9.38 194.03-11.84L194.03-11.84L194.03-11.84Q193.75-14.31 193.47-16.50L193.47-16.50L193.47-16.50Q193.19-18.69 193-20.38L193-20.38L193-20.38Q192.81-22.06 192.63-22.75L192.63-22.75L192.63-22.75Q191.69-25.63 190.66-26.75L190.66-26.75L190.66-26.75Q189.63-27.88 188.59-27.75L188.59-27.75L188.59-27.75Q187.56-27.63 186.63-26.44L186.63-26.44L186.63-26.44Q185.69-25.25 184.94-23.44L184.94-23.44L184.94-23.44Q184.19-21.63 183.53-19.41L183.53-19.41L183.53-19.41Q182.88-17.19 182.53-15L182.53-15L182.53-15Q182.19-12.81 182.09-10.88L182.09-10.88L182.09-10.88Q182-8.94 182.31-7.69L182.31-7.69L179.88-7.19L179.88-7.19Q180.06-13.19 179.47-17.03L179.47-17.03L179.47-17.03Q178.88-20.88 177.84-22.94L177.84-22.94L177.84-22.94Q176.81-25 175.50-25.41L175.50-25.41L175.50-25.41Q174.19-25.81 172.91-24.88L172.91-24.88L172.91-24.88Q171.63-23.94 170.56-21.75L170.56-21.75L170.56-21.75Q169.50-19.56 168.97-16.47L168.97-16.47L168.97-16.47Q168.44-13.38 168.56-9.50L168.56-9.50L168.56-9.50Q168.69-5.63 169.88-1.19L169.88-1.19L167.50-1.19L167.50-1.19Q167.50-1.19 167.34-2.38L167.34-2.38L167.34-2.38Q167.19-3.56 166.97-5.41L166.97-5.41L166.97-5.41Q166.75-7.25 166.50-9.59L166.50-9.59L166.50-9.59Q166.25-11.94 166-14.34L166-14.34L166-14.34Q165.75-16.75 165.50-18.97L165.50-18.97L165.50-18.97Q165.25-21.19 165.06-22.75L165.06-22.75L165.06-22.75Q165.06-22.94 165.06-23.59L165.06-23.59L165.06-23.59Q165.06-24.25 165.06-24.38ZM223.88-43.19L223.88-43.94L223.88-43.94Q223.88-44.69 224.41-45.16L224.41-45.16L224.41-45.16Q224.94-45.63 225.69-45.63L225.69-45.63L225.69-45.63Q225.75-45.63 226-45.63L226-45.63L226-45.63Q226.25-45.63 226.31-45.63L226.31-45.63L226.31-45.63Q226.63-40.38 226.88-35.66L226.88-35.66L226.88-35.66Q227.13-30.94 227.28-26.38L227.28-26.38L227.28-26.38Q227.44-21.81 227.50-17.28L227.50-17.28L227.50-17.28Q227.56-12.75 227.56-7.81L227.56-7.81L227.56-7.81Q227.56-7.13 227.66-5.94L227.66-5.94L227.66-5.94Q227.75-4.75 227.84-3.63L227.84-3.63L227.84-3.63Q227.94-2.50 228.03-1.59L228.03-1.59L228.03-1.59Q228.13-0.69 228.13-0.63L228.13-0.63L225.44-0.13L225.44-0.13Q225.31-2.69 225.19-6.03L225.19-6.03L225.19-6.03Q225.06-9.38 224.97-13.16L224.97-13.16L224.97-13.16Q224.88-16.94 224.78-20.97L224.78-20.97L224.78-20.97Q224.69-25 224.53-28.94L224.53-28.94L224.53-28.94Q224.38-32.88 224.22-36.53L224.22-36.53L224.22-36.53Q224.06-40.19 223.88-43.19L223.88-43.19Z" fill="url(#editing-gradient-gradient)"></path></g></g><style>text {
  font-size: 64px;
  font-family: Arial Black;
  dominant-baseline: central;
  text-anchor: middle;
}</style></svg>